<svg width="927" height="611" viewBox="0 0 927 611" fill="none" xmlns="http://www.w3.org/2000/svg">
    <g id="Section1">
        <path id="Buleleng" title="Buleleng" d="M690.583 119.648L705 105.223C656.035 64.938 574.08 12.4371 503.165 47.5243C428.153 84.6386 395.544 129.395 327.436 129.395C293.147 129.395 242.753 114.97 212.881 105.223C195.736 88.9793 156.227 61.5592 135.342 81.8319C109.236 107.173 74.9471 111.461 85.8571 93.5276C96.7671 75.5941 87.4158 71.6955 55.0755 63.8984C29.2032 57.6607 27.4108 88.8493 29.7487 105.223C39.7495 105.223 56.4781 108.108 43.3861 119.648C30.294 131.188 41.5677 144.209 48.8411 149.277C76.5057 137.322 133.627 118.479 140.797 138.751C147.966 159.024 169.501 166.431 179.371 167.601C188.074 160.063 206.958 145.847 212.881 149.277C220.284 153.566 238.208 162.143 245.221 162.143C250.832 162.143 257.17 178.257 259.638 186.314C264.703 187.873 276.159 190.992 281.458 190.992C286.757 190.992 291.459 202.948 293.147 208.926C289.77 216.203 287.381 231.459 304.837 234.266C326.657 237.775 323.539 239.724 339.904 251.42C352.996 260.777 366.4 262.336 371.466 261.946C386.142 242.453 421.262 204.559 444.329 208.926C467.396 213.292 509.269 198.789 527.323 190.992C543.298 185.794 575.015 172.747 574.08 162.143C573.145 151.539 584.081 132.513 589.666 124.326C602.784 113.15 631.358 93.6836 640.709 105.223C650.06 116.763 677.855 119.648 690.583 119.648Z" fill="#CDF9FC" stroke="black" stroke-width="2"/>
        <path id="Karangasem" title="Karangasem" d="M690.322 121.027L705.515 107C721.487 107 755.534 111.442 763.948 129.209C774.466 151.418 792.386 152.197 806.799 156.872C818.33 160.613 823.81 189.082 825.109 202.849C832.51 212.979 853.079 234.019 876.141 237.136C904.968 241.032 899.124 276.878 892.891 272.203C887.905 268.462 860.428 292.983 847.313 305.711C837.834 323.114 813.578 355.739 792.386 347.011C765.896 336.102 762.39 347.011 763.948 357.921C765.506 368.831 716.033 396.105 723.824 382.078C730.057 370.857 721.227 357.661 716.033 352.466L700.061 347.011C690.322 339.349 674.74 322.309 690.322 315.451C705.904 308.594 696.815 280.125 690.322 266.748C679.155 258.566 665.468 235.811 700.061 210.252C743.302 178.302 716.033 161.938 723.824 147.911C730.057 136.69 704.086 125.313 690.322 121.027Z" fill="#CDF9FC" stroke="black" stroke-width="2"/>
        <path id="Bangli" title="Bangli" d="M636.368 100.635C643.829 115.314 674.448 119.504 688.825 119.764C718.045 125.169 726.904 141.535 726.127 148.261C723.407 146.7 719.599 146.309 726.127 163.486C734.584 185.737 712.527 197.838 697.373 210.721C682.219 223.603 669.008 239.218 691.156 265.764C708.875 287 698.539 308.965 691.156 317.293C666.288 331.216 617.096 352.661 628.597 327.052C640.099 301.444 638.57 285.412 636.368 280.598C631.576 274.222 623.313 260.22 628.597 255.223C633.882 250.227 630.799 242.471 628.597 239.218C618.235 240.78 596.89 238.203 594.403 215.405C591.295 186.908 582.358 202.523 573.809 170.122C565.261 137.721 627.043 82.2879 636.368 100.635Z" fill="#CDF9FC" stroke="black" stroke-width="2"/>
        <path id="Jembrana" title="Jembrana" d="M57.5219 177.302C59.3924 171.371 51.2867 155.32 47 148.036L89.4772 135.549C103.247 129.565 132.968 122.281 141.697 141.012C152.608 164.425 183.395 169.888 180.667 167.156C177.939 164.425 212.622 144.524 211.453 148.036C210.518 150.845 236.264 159.872 249.254 164.035L259.776 186.277C272.896 189.269 302.019 192.989 296.407 202.666C289.393 214.763 296.018 232.323 306.929 233.493C317.841 234.664 339.274 244.81 343.171 252.614C346.289 258.857 361.877 260.679 369.281 260.809C373.568 272.775 380.66 298.348 374.737 304.903C368.814 311.459 361.877 315.699 359.149 317C352.784 312.968 337.56 304.903 327.583 304.903C317.607 304.903 304.461 296.058 299.135 291.636C282.508 280.84 238.42 262.369 195.086 274.856C140.917 290.465 127.278 274.856 116.366 252.614C105.455 230.372 93.7639 233.103 83.242 228.811C74.8245 225.377 77.1367 213.072 79.345 207.349C71.2912 199.804 55.6513 183.233 57.5219 177.302Z" fill="#CDF9FC" stroke="black" stroke-width="2"/>
        <path id="Tabanan" title="Tabanan" d="M406.403 224.425C415.761 215.949 436.896 200.797 446.566 207.995C458.71 207.995 463.744 208.324 468.184 208.001L484 204.691C500.047 200.431 517.486 194.367 528.843 190C525.412 224.112 530.273 232.64 533.132 232.64C536.512 250.895 539.683 287.172 525.334 286.233C510.984 285.294 507.656 295.23 507.786 300.316C507.267 308.009 503.809 324.804 494.139 330.437C484.468 336.07 483.35 346.085 484 350.388C485.43 354.17 486.496 365.41 479.321 380.118C472.146 394.827 454.495 397.461 446.566 396.94C433.178 378.554 404.453 341.234 396.654 339.044C388.855 336.853 367.929 322.744 360 316.354C365.069 313.355 376.377 306.575 376.377 300.316C376.377 294.057 372.608 272.15 369.748 261.979L406.403 224.425Z" fill="#CDF9FC"  stroke="black" stroke-width="2"/>
        <path id="Badung" title="Badung" d="M553.87 528.59C545.799 531.393 543.264 514.701 543.005 506.004C537.702 498.865 527.484 483.107 529.036 477.188C530.589 471.269 525.544 460.703 522.828 456.16C521.017 455.511 517.396 452.422 517.396 445.257C517.396 436.301 517.396 441.752 522.828 416.051C540.289 415.662 539.901 409.821 541.841 405.148C549.602 406.316 559.69 395.802 563.958 393.466C567.373 391.597 566.157 377.63 565.122 370.88C563.57 370.751 561.397 365.039 565.122 343.233C576.608 340.429 578.703 332.978 578.315 329.603C577.927 328.565 576.685 325.631 574.823 322.205C575.987 317.921 555.81 307.018 558.914 307.018C561.397 307.018 566.933 298.191 569.391 293.778C570.037 290.014 572.029 281.551 574.823 277.812C577.617 274.074 580.902 267.428 582.195 264.573C583.23 261.587 586.231 253.825 589.956 246.66C594.612 237.704 593.06 238.872 595 222.517C594.224 206.551 587.24 194.48 587.628 196.816C587.938 198.685 582.066 191.105 579.091 187.081C578.703 186.302 576.763 181.396 572.107 168C564.346 177.657 539.901 187.081 528.648 190.586C527.872 201.748 526.941 225.087 529.424 229.137C532.529 234.199 530.201 230.694 533.305 233.81C537.03 253.124 535.891 268.856 534.857 274.308C533.951 278.851 531.054 287.625 526.708 286.379C522.363 285.133 516.102 287.418 513.516 288.716C511.964 289.495 508.627 292.766 507.695 299.619C506.143 318.622 497.219 328.825 492.951 331.55C489.07 332.848 482.008 339.027 484.802 353.357C485.578 371.659 480.922 379.058 472.773 388.014C466.255 395.179 452.208 396.192 446 395.802C449.492 399.437 456.632 407.407 457.253 410.21C458.029 413.715 473.161 431.238 480.922 435.522C487.13 438.948 493.339 449.411 495.667 454.213C499.03 458.886 508.083 469.634 517.396 475.241C526.708 480.849 521.276 493.413 517.396 498.995C518.043 501.331 519.802 507.25 521.664 512.235C523.992 518.465 519.336 523.917 517.396 527.032C515.456 530.147 501.487 532.873 499.547 532.094C497.995 531.471 486.484 544.296 480.922 550.786C471.609 551.565 454.769 555.848 461.909 566.751C469.049 577.655 503.168 575.448 519.336 572.982C521.923 570.646 530.278 566.128 543.005 566.751C555.732 567.375 569.003 556.367 574.047 550.786C575.34 545.853 577.151 533.574 574.047 523.917C570.943 514.26 565.252 518.335 562.794 521.58C563.182 522.749 561.941 525.786 553.87 528.59Z" fill="#CDF9FC" stroke="black" stroke-width="2"/>
        <path id="Denpasar" title="Denpasar" d="M542.323 403.416C551.059 403.106 562.342 395.139 567.282 391C569.752 393.587 576.174 401.321 578.981 406.909C582.491 413.893 591.461 418.937 590.681 421.265C590.057 423.127 597.441 428.508 601.211 430.965C604.72 431.483 611.584 433.216 610.96 436.009C610.336 438.803 607.32 442.864 605.89 444.546C604.72 455.669 600.665 478.691 593.801 481.795C585.221 485.675 574.692 486.063 570.792 489.167C566.892 492.271 566.502 498.091 562.602 503.136C559.482 507.171 548.303 512.06 543.103 514L542.323 506.24C536.993 498.091 526.802 481.795 528.673 481.795C526.334 477.139 530.623 467.051 522.434 456.962C510.149 441.83 518.534 427.732 522.434 414.669C526.463 416.221 536.083 416.143 542.323 403.416Z" fill="#CDF9FC" stroke="black" stroke-width="2"/>
        <path id="Gianyar" title="Gianyar" d="M595.448 222C595.448 234.849 619.36 240.3 629.57 239.91C631.251 242.506 633.758 248.71 630.346 252.759C626.081 257.821 626.468 261.325 626.468 262.104C626.468 262.882 631.509 275.731 636.162 281.182C640.815 286.633 634.999 311.941 630.346 322.064C626.623 330.163 626.727 334.005 627.244 334.913C627.373 345.296 628.407 366.373 631.509 367.619C635.387 369.176 650.121 385.529 650.896 387.087C651.672 388.644 648.182 401.882 637.325 400.714C631.897 410.837 626.856 413.952 619.877 415.899C612.897 417.846 608.632 428.358 606.693 431.473C604.754 434.588 590.408 422.907 591.183 422.129C591.959 421.35 583.04 410.059 581.877 410.059C580.947 410.059 571.925 397.08 567.53 390.591C567.189 390.694 566.526 390.978 565.922 391.443C565.733 391.897 565.496 392.148 565.204 392.148C565.412 391.879 565.661 391.644 565.922 391.443C567.238 388.287 566.221 375.354 565.204 369.566C561.482 369.566 563.653 352.174 565.204 343.479C569.728 342.57 578.775 338.729 578.775 330.63C578.775 322.532 565.592 311.681 559 307.269C560.939 307.269 568.228 298.703 581.877 264.44C598.938 221.611 586.53 255.874 595.448 222Z" fill="#CDF9FC"  stroke="black" stroke-width="2"/>
        <g id="Klungkung" title="Klungkung">
            <path id="Klungkung1" title="Klungkung1" d="M699.084 396.31C702.212 397.243 716.029 388.658 722.546 384.249C723.719 382.433 726.065 378.18 726.065 375.69C726.065 372.577 725.674 370.243 724.11 365.574C723.797 362.151 718.505 355.588 715.898 352.735L699.475 347.289C694.001 342.231 691.654 339.507 686.962 333.672C683.208 329.003 683.312 323.945 683.834 322C675.231 325.891 654.976 334.605 642.775 338.34C630.575 341.142 627.264 338.211 627.134 336.395C626.743 343.917 626.978 360.594 631.044 367.13C636.988 370.865 647.077 382.433 651.378 387.75C651.248 388.269 650.831 389.851 650.205 392.03C657.243 401.756 695.174 395.142 699.084 396.31Z" fill="#CDF9FC"  stroke="black" stroke-width="2"/>
            <path id="NusaPenida" title="NusaPenida" d="M727.629 479.178C739.204 460.192 764.777 458.818 776.117 460.504C785.815 455.213 790.064 458.299 790.977 460.504C791.107 462.708 792.384 467.118 796.451 467.118C803.881 468.674 800.752 469.452 810.528 485.403C823.354 490.383 826.561 493.184 826.561 493.962C828.907 499.28 833.677 511.47 833.99 517.695C834.303 523.92 827.082 529.885 823.432 532.09C823.563 535.851 819.913 546.563 804.272 559.324C787.379 567.105 770.382 556.082 763.995 549.597C764.386 544.28 762.666 531.934 752.655 525.087C739.83 521.974 730.627 512.637 727.629 508.357C722.807 506.542 716.055 498.164 727.629 479.178Z" fill="#CDF9FC"  stroke="black" stroke-width="2"/>
        </g>
    </g>
</svg>
